# xmcd CD database file
#
# Track frame offsets:
#	150
#	30300
#	53395
#	80720
#	122005
#	142287
#	164745
#	188860
#	217352
#	249615
#
# Disc length: 3734 seconds
#
# Revision: 2
# Processed by: cddbd v1.4PL0 Copyright (c) Steve Scherf et al.
# Submitted via: CDex 1.51
#
DISCID=960e940a
DTITLE=Billy Bang - Bang On!
DYEAR=1997
DGENRE=Jazz
TTITLE0=Bama Swing
TTITLE1=Sweet Georgia Brown
TTITLE2=Peaceful Dreams
TTITLE3=Spirits Entering
TTITLE4=They Plan
TTITLE5=Three Faces Of Eve
TTITLE6=Yesterdays
TTITLE7=Don's Dream
TTITLE8=Willow Weep For Me
TTITLE9=Mr. Syms
EXTD=YEAR: 1997
EXTT0=
EXTT1=
EXTT2=
EXTT3=
EXTT4=
EXTT5=
EXTT6=
EXTT7=
EXTT8=
EXTT9=
PLAYORDER=
